<?xml version="1.0" standalone="no"?><!DOCTYPE svg PUBLIC "-//W3C//DTD SVG 1.1//EN" "http://www.w3.org/Graphics/SVG/1.1/DTD/svg11.dtd"><svg t="1522319014006" class="icon" style="" viewBox="0 0 1024 1024" version="1.1" xmlns="http://www.w3.org/2000/svg" p-id="968" xmlns:xlink="http://www.w3.org/1999/xlink" width="32" height="32"><defs><style type="text/css"></style></defs><path d="M766.812965 209.640648c-169.882132-0.024559-339.765287-0.024559-509.648442 0-32.282241 0.00614-47.51006 15.252379-47.523363 47.558156-0.033769 84.942601-0.011256 169.883155-0.011256 254.822686 0 84.943624-0.022513 169.884179 0.011256 254.827803 0.014326 32.28838 15.236006 47.50392 47.542806 47.509037 169.882132 0.025583 339.76631 0.025583 509.647419 0 32.304753-0.005117 47.520293-15.220656 47.52541-47.532573 0.025583-169.879062 0.025583-339.764264 0-509.646396C814.352701 224.88177 799.112602 209.646787 766.812965 209.640648zM759.639588 774.253936c-82.539878-0.361227-165.082826-0.200568-247.622704-0.200568-82.540901 0-165.082826-0.152473-247.621681 0.198521-10.288321 0.040932-14.804171-1.183965-14.769378-13.533224 0.476861-166.039617 0.404206-332.083328 0.105401-498.122945-0.01842-9.79611 2.082428-12.915148 12.467963-12.892635 166.521594 0.342808 333.044212 0.342808 499.565806 0.00307 10.337439-0.022513 12.524245 3.006474 12.505825 12.852726-0.303922 166.04064-0.372483 332.086397 0.101307 498.123968C774.404873 772.968663 769.986237 774.297938 759.639588 774.253936z" p-id="969" fill="#565656"></path><path d="M700.091354 383.945509c-4.216022-4.431939-9.853415-6.876618-15.864316-6.876618-5.807263 0-11.301394 2.305509-15.46932 6.493901L463.133547 589.966723l-108.612697-111.663172c-3.602038-3.706415-8.496511-5.746888-13.784958-5.746888-6.002714 0-11.764951 2.523473-16.226566 7.106862-8.797363 9.03784-9.392928 23.13286-1.328251 31.420617l126.569674 130.113383c3.595898 3.697205 8.487302 5.733585 13.772678 5.733585 5.919826 0 11.835559-2.591011 16.232706-7.108908 1.893116-1.941212 3.472078-4.290723 4.697999-6.986111l0.762363-1.677199 1.848091-1.376347c0.847298-0.629333 1.579985-1.172709 2.115174-1.715061l210.53911-211.333196C708.609355 407.809009 708.777177 393.100006 700.091354 383.945509z" p-id="970" fill="#565656"></path></svg>